<svg width="28" height="28" viewBox="0 0 28 28" fill="none" xmlns="http://www.w3.org/2000/svg">
<path d="M1.151 1.88672H5.72404L8.78797 17.261C8.89252 17.7896 9.17886 18.2645 9.59688 18.6024C10.0149 18.9404 10.538 19.1199 11.0745 19.1096H22.187C22.7235 19.1199 23.2466 18.9404 23.6646 18.6024C24.0826 18.2645 24.3689 17.7896 24.4735 17.261L26.3027 7.62768H6.8673" stroke="#484848" stroke-width="2" stroke-linecap="round" stroke-linejoin="round"/>
<path d="M10.6538 26.7024C11.4822 26.7024 12.1538 26.0308 12.1538 25.2024C12.1538 24.374 11.4822 23.7024 10.6538 23.7024C9.82538 23.7024 9.15381 24.374 9.15381 25.2024C9.15381 26.0308 9.82538 26.7024 10.6538 26.7024Z" stroke="#484848" stroke-width="2" stroke-linecap="round" stroke-linejoin="round"/>
<path d="M23.2296 26.7024C24.058 26.7024 24.7296 26.0308 24.7296 25.2024C24.7296 24.374 24.058 23.7024 23.2296 23.7024C22.4012 23.7024 21.7296 24.374 21.7296 25.2024C21.7296 26.0308 22.4012 26.7024 23.2296 26.7024Z" stroke="#484848" stroke-width="2" stroke-linecap="round" stroke-linejoin="round"/>
</svg>
