<svg width="26" height="23" viewBox="0 0 26 23" fill="none" xmlns="http://www.w3.org/2000/svg">
<path d="M23.3232 3.11001C22.751 2.53318 22.0716 2.0756 21.3237 1.76341C20.5759 1.45121 19.7744 1.29053 18.965 1.29053C18.1555 1.29053 17.354 1.45121 16.6062 1.76341C15.8584 2.0756 15.1789 2.53318 14.6067 3.11001L13.4191 4.30657L12.2315 3.11001C11.0756 1.9454 9.5079 1.29113 7.87323 1.29113C6.23857 1.29113 4.67085 1.9454 3.51497 3.11001C2.35909 4.27461 1.70972 5.85416 1.70972 7.50116C1.70972 9.14816 2.35909 10.7277 3.51497 11.8923L4.70257 13.0889L13.4191 21.8712L22.1356 13.0889L23.3232 11.8923C23.8957 11.3158 24.3499 10.6312 24.6597 9.87775C24.9696 9.1243 25.1291 8.31672 25.1291 7.50116C25.1291 6.68559 24.9696 5.87802 24.6597 5.12457C24.3499 4.37112 23.8957 3.68656 23.3232 3.11001V3.11001Z" stroke="#484848" stroke-width="2" stroke-linecap="round" stroke-linejoin="round"/>
</svg>
