<svg width="32" height="29" viewBox="0 0 32 29" fill="none" xmlns="http://www.w3.org/2000/svg">
<path d="M27.9601 3.83448C27.2434 3.11199 26.3924 2.53886 25.4557 2.14783C24.5191 1.75681 23.5152 1.55554 22.5013 1.55554C21.4874 1.55554 20.4835 1.75681 19.5469 2.14783C18.6102 2.53886 17.7592 3.11199 17.0425 3.83448L15.555 5.33321L14.0675 3.83448C12.6197 2.37579 10.6561 1.5563 8.60863 1.5563C6.56117 1.5563 4.59757 2.37579 3.1498 3.83448C1.70202 5.29318 0.888672 7.2716 0.888672 9.33451C0.888672 11.3974 1.70202 13.3758 3.1498 14.8345L4.63729 16.3333L15.555 27.3333L26.4726 16.3333L27.9601 14.8345C28.6772 14.1124 29.246 13.255 29.6341 12.3113C30.0222 11.3675 30.222 10.356 30.222 9.33451C30.222 8.313 30.0222 7.30149 29.6341 6.35777C29.246 5.41406 28.6772 4.55664 27.9601 3.83448V3.83448Z" stroke="#A7A7A7" stroke-width="2" stroke-linecap="round" stroke-linejoin="round"/>
</svg>
