<svg width="31" height="27" viewBox="0 0 31 27" fill="none" xmlns="http://www.w3.org/2000/svg">
<path d="M27.9601 2.83448C27.2434 2.11199 26.3924 1.53886 25.4557 1.14783C24.5191 0.756805 23.5152 0.555542 22.5013 0.555542C21.4874 0.555542 20.4835 0.756805 19.5469 1.14783C18.6102 1.53886 17.7592 2.11199 17.0425 2.83448L15.555 4.33321L14.0675 2.83448C12.6197 1.37579 10.6561 0.556298 8.60863 0.556298C6.56117 0.556298 4.59757 1.37579 3.1498 2.83448C1.70202 4.29318 0.888672 6.2716 0.888672 8.33451C0.888672 10.3974 1.70202 12.3758 3.1498 13.8345L4.63729 15.3333L15.555 26.3333L26.4726 15.3333L27.9601 13.8345C28.6772 13.1124 29.246 12.255 29.6341 11.3113C30.0222 10.3675 30.222 9.35603 30.222 8.33451C30.222 7.313 30.0222 6.30149 29.6341 5.35777C29.246 4.41406 28.6772 3.55664 27.9601 2.83448Z" fill="#FF6464"/>
</svg>
